<svg xmlns="http://www.w3.org/2000/svg" data-name="Layer 1" viewBox="0 0 100 125" x="0px" y="0px"><path d="M91.89,40h0L56,13.8a7.55,7.55,0,0,0-12,6.1v5.43H12.55A7.56,7.56,0,0,0,5,32.88V67.13a7.55,7.55,0,0,0,7.55,7.54H44v5.44a7.52,7.52,0,0,0,4.13,6.73,7.66,7.66,0,0,0,3.42.82A7.46,7.46,0,0,0,56,86.21L91.89,60.06A7.57,7.57,0,0,0,95,54V46.05A7.54,7.54,0,0,0,91.89,40Zm-2.75,8.42L53.21,74.53a2.89,2.89,0,0,1-1.69.55,2.87,2.87,0,0,1-2.87-2.88V62.1H12.55a2.88,2.88,0,0,1-2.88-2.88V32.88A2.88,2.88,0,0,1,12.55,30h36.1V19.9a2.87,2.87,0,0,1,4.56-2.33L89.14,43.73a2.86,2.86,0,0,1,0,4.64Z"/></svg>